<?xml version="1.0" ?><!DOCTYPE svg  PUBLIC '-//W3C//DTD SVG 1.1//EN'  'http://www.w3.org/Graphics/SVG/1.1/DTD/svg11.dtd'><svg enable-background="new 0 0 75 75" height="75px" version="1.1" viewBox="0 0 75 75" width="75px" xml:space="preserve" xmlns="http://www.w3.org/2000/svg" xmlns:xlink="http://www.w3.org/1999/xlink"><g id="Layer_1"><g><g><g><g><g><g><polygon fill="#68B2E0" points="21.939,56.385 53.077,56.385 56.259,68.74 18.752,68.74        "/></g><g><polygon fill="#379ACC" points="27.488,56.385 47.525,56.385 49.573,68.74 25.438,68.74        "/></g><g><path d="M21.939,56.627v-0.242h31.138v0.242c7.254-4.971,12.017-13.307,12.017-22.773         C65.094,18.615,52.75,6.26,37.5,6.26c-15.234,0-27.594,12.355-27.594,27.594C9.906,43.32,14.674,51.656,21.939,56.627z" fill="#FFFFFF"/></g><g><path d="M24.358,56.627v-0.205h26.298v0.205c6.125-4.197,10.148-11.238,10.148-19.232         c0-12.869-10.426-23.305-23.305-23.305c-12.865,0-23.305,10.436-23.305,23.305C14.195,45.389,18.223,52.43,24.358,56.627z" fill="#F0F6FC"/></g><g><path d="M26.593,56.627v-0.17h21.826v0.17c5.084-3.484,8.423-9.326,8.423-15.963         c0-10.68-8.653-19.342-19.342-19.342c-10.678,0-19.342,8.662-19.342,19.342C18.158,47.301,21.5,53.143,26.593,56.627z" fill="#D9F1FF"/></g><g><path d="M28.909,56.627v-0.133H46.1v0.133c4.004-2.744,6.633-7.346,6.633-12.57         c0-8.412-6.814-15.234-15.232-15.234c-8.409,0-15.233,6.822-15.233,15.234C22.267,49.281,24.898,53.883,28.909,56.627z" fill="#97D7FF"/></g><g><path d="M37.499,28.822c-8.409,0-15.232,6.822-15.232,15.234c0,5.225,2.632,9.826,6.643,12.57v-0.133h8.59         V28.822z" fill="#AEDCFF"/></g><g><path d="M56.279,69.49c-0.007,0-0.013,0-0.02,0H18.752c-0.232,0-0.451-0.107-0.593-0.291         c-0.142-0.183-0.191-0.422-0.133-0.646l3.188-12.355c0.085-0.331,0.384-0.562,0.726-0.562h31.138         c0.342,0,0.641,0.231,0.726,0.562l3.141,12.196c0.054,0.104,0.085,0.222,0.085,0.347         C57.029,69.154,56.693,69.49,56.279,69.49z M19.72,67.99h35.571l-2.795-10.855H22.521L19.72,67.99z" fill="#093260"/></g><g><path d="M53.077,57.377c-0.12,0-0.24-0.028-0.35-0.087c-0.077-0.04-0.145-0.093-0.202-0.155H22.491         c-0.057,0.062-0.125,0.115-0.202,0.155c-0.246,0.132-0.544,0.112-0.773-0.044c-7.739-5.295-12.36-14.04-12.36-23.393         C9.156,18.225,21.871,5.51,37.5,5.51s28.344,12.715,28.344,28.344c0,9.352-4.614,18.096-12.343,23.393         C53.374,57.333,53.226,57.377,53.077,57.377z M37.5,7.01c-14.802,0-26.844,12.042-26.844,26.844         c0,8.645,4.168,16.741,11.184,21.788c0.032-0.005,0.065-0.007,0.099-0.007h31.138c0.033,0,0.066,0.002,0.099,0.007         c7.005-5.048,11.168-13.145,11.168-21.788C64.344,19.052,52.302,7.01,37.5,7.01z" fill="#093260"/></g><g><path d="M20.68,25.783h-0.758c-0.267,0-0.514-0.142-0.648-0.373l-0.382-0.656         c-0.135-0.233-0.135-0.521,0-0.754l0.382-0.656c0.134-0.231,0.381-0.373,0.648-0.373h0.758c0.27,0,0.518,0.145,0.651,0.379         l0.374,0.656c0.131,0.229,0.131,0.513,0,0.742l-0.374,0.656C21.198,25.639,20.949,25.783,20.68,25.783z" fill="#D9EBFC"/></g><g><path d="M60.898,34.98h-0.758c-0.268,0-0.515-0.143-0.649-0.374l-0.38-0.656c-0.135-0.232-0.135-0.52,0-0.752         l0.38-0.656c0.134-0.231,0.381-0.374,0.649-0.374h0.758c0.269,0,0.518,0.145,0.651,0.378l0.375,0.656         c0.131,0.23,0.131,0.514,0,0.744l-0.375,0.656C61.416,34.836,61.167,34.98,60.898,34.98z" fill="#D9EBFC"/></g><g><path d="M16.155,35.176c-0.13,0-0.259-0.033-0.375-0.101l-0.655-0.379c-0.232-0.134-0.375-0.382-0.375-0.649         v-0.756c0-0.268,0.143-0.516,0.375-0.649l0.655-0.379c0.232-0.135,0.519-0.135,0.751,0l0.655,0.379         c0.232,0.134,0.375,0.382,0.375,0.649v0.756c0,0.268-0.143,0.516-0.375,0.649l-0.655,0.379         C16.415,35.143,16.285,35.176,16.155,35.176z" fill="#D9EBFC"/></g><g><path d="M58.078,28.553c-0.129,0-0.258-0.033-0.374-0.1l-0.656-0.377c-0.233-0.134-0.376-0.382-0.376-0.65         v-0.758c0-0.268,0.143-0.516,0.375-0.649l0.656-0.379c0.232-0.135,0.518-0.135,0.75,0l0.656,0.379         c0.232,0.134,0.375,0.382,0.375,0.649v0.758c0,0.269-0.144,0.517-0.376,0.65l-0.656,0.377         C58.336,28.52,58.207,28.553,58.078,28.553z" fill="#D9EBFC"/></g><path d="M25.141,15.281c-1.29,0-1.29,2,0,2S26.43,15.281,25.141,15.281z" fill="#D9EBFC"/><path d="M43.625,10.791c-1.29,0-1.29,2,0,2S44.915,10.791,43.625,10.791z" fill="#D9EBFC"/><path d="M53.208,19.458c-1.29,0-1.29,2,0,2S54.498,19.458,53.208,19.458z" fill="#D9EBFC"/><path d="M34.792,10.75c-1.29,0-1.29,2,0,2S36.081,10.75,34.792,10.75z" fill="#D9EBFC"/><path d="M21,17.453c-1.29,0-1.29,2,0,2S22.29,17.453,21,17.453z" fill="#D9EBFC"/><path d="M52.208,22.791c-1.29,0-1.29,2,0,2S53.498,22.791,52.208,22.791z" fill="#D9EBFC"/><path d="M45,16.333c-1.29,0-1.29,2,0,2S46.29,16.333,45,16.333z" fill="#D9EBFC"/><path d="M49.75,13.916c-1.29,0-1.29,2,0,2S51.04,13.916,49.75,13.916z" fill="#D9EBFC"/><path d="M31.375,14.583c-1.29,0-1.29,2,0,2S32.665,14.583,31.375,14.583z" fill="#D9EBFC"/><path d="M38.875,13.833c-1.29,0-1.29,2,0,2S40.165,13.833,38.875,13.833z" fill="#D9EBFC"/></g></g></g><g><g><g><g><path d="M26.683,66.957c-0.414,0-0.75-0.336-0.75-0.75c0-2.569-2.09-4.66-4.66-4.66         c-0.414,0-0.75-0.336-0.75-0.75s0.336-0.75,0.75-0.75c3.396,0,6.16,2.764,6.16,6.16         C27.433,66.621,27.097,66.957,26.683,66.957z" fill="#093260"/></g><g><path d="M26.683,66.957c-0.414,0-0.75-0.336-0.75-0.75c0-3.396,2.763-6.16,6.159-6.16         c0.414,0,0.75,0.336,0.75,0.75s-0.336,0.75-0.75,0.75c-2.569,0-4.659,2.091-4.659,4.66         C27.433,66.621,27.097,66.957,26.683,66.957z" fill="#093260"/></g></g><g><path d="M26.683,66.957c-0.72,0-1.306-0.586-1.306-1.307c0-0.72,0.586-1.305,1.306-1.305        c0.719,0,1.304,0.585,1.304,1.305C27.986,66.371,27.401,66.957,26.683,66.957z M26.683,65.457        c-0.106,0-0.196,0.089-0.196,0.193c0,0.214,0.391,0.217,0.391,0C26.877,65.546,26.788,65.457,26.683,65.457z" fill="#093260"/></g></g><g><g><g><path d="M37.501,66.957c-0.414,0-0.75-0.336-0.75-0.75c0-2.569-2.09-4.66-4.659-4.66         c-0.414,0-0.75-0.336-0.75-0.75s0.336-0.75,0.75-0.75c3.396,0,6.159,2.764,6.159,6.16         C38.251,66.621,37.915,66.957,37.501,66.957z" fill="#093260"/></g><g><path d="M37.501,66.957c-0.414,0-0.75-0.336-0.75-0.75c0-3.396,2.762-6.16,6.157-6.16         c0.414,0,0.75,0.336,0.75,0.75s-0.336,0.75-0.75,0.75c-2.568,0-4.657,2.091-4.657,4.66         C38.251,66.621,37.915,66.957,37.501,66.957z" fill="#093260"/></g></g><g><path d="M37.501,66.957c-0.721,0-1.308-0.586-1.308-1.307c0-0.72,0.586-1.305,1.308-1.305        c0.72,0,1.306,0.585,1.306,1.305C38.807,66.371,38.221,66.957,37.501,66.957z M37.501,65.457        c-0.107,0-0.194,0.087-0.194,0.193c0,0.214,0.387,0.216,0.387,0C37.693,65.544,37.607,65.457,37.501,65.457z" fill="#093260"/></g></g><g><g><g><path d="M48.317,66.957c-0.414,0-0.75-0.336-0.75-0.75c0-2.569-2.09-4.66-4.659-4.66         c-0.414,0-0.75-0.336-0.75-0.75s0.336-0.75,0.75-0.75c3.396,0,6.159,2.764,6.159,6.16         C49.067,66.621,48.731,66.957,48.317,66.957z" fill="#093260"/></g><g><path d="M48.317,66.957c-0.414,0-0.75-0.336-0.75-0.75c0-3.396,2.764-6.16,6.16-6.16         c0.414,0,0.75,0.336,0.75,0.75s-0.336,0.75-0.75,0.75c-2.57,0-4.66,2.091-4.66,4.66         C49.067,66.621,48.731,66.957,48.317,66.957z" fill="#093260"/></g></g><g><path d="M48.317,66.957c-0.719,0-1.304-0.586-1.304-1.307c0-0.72,0.585-1.305,1.304-1.305        c0.72,0,1.306,0.585,1.306,1.305C49.623,66.371,49.037,66.957,48.317,66.957z M48.317,65.457        c-0.105,0-0.194,0.089-0.194,0.193c0,0.217,0.391,0.214,0.391,0C48.514,65.546,48.424,65.457,48.317,65.457z" fill="#093260"/></g></g></g></g><g><g><path d="M43.04,36.889c-1.543,0.973-3.447,1.572-5.541,1.572c-2.092,0-3.996-0.6-5.542-1.572      c-4.107,1.682-6.939,5.166-6.939,9.199c0,5.68,5.591,10.283,12.481,10.283c6.893,0,12.483-4.604,12.483-10.283      C49.982,42.055,47.15,38.57,43.04,36.889z" fill="#F0F6FC"/></g><g><path d="M44.581,36.889c-1.2,0.973-2.682,1.572-4.312,1.572c-1.628,0-3.108-0.6-4.312-1.572      c-3.195,1.682-5.398,5.166-5.398,9.199c0,5.68,4.35,10.283,9.71,10.283c5.363,0,9.713-4.604,9.713-10.283      C49.982,42.055,47.778,38.57,44.581,36.889z" fill="#D9F1FF"/></g><g><g><g><line fill="#F0F6FC" x1="54.655" x2="47.246" y1="32.127" y2="39.531"/></g><g><line fill="#F0F6FC" x1="50.949" x2="50.949" y1="31.629" y2="35.826"/></g><g><line fill="#F0F6FC" x1="52.13" x2="54.817" y1="34.758" y2="34.758"/></g></g><g><g><line fill="#F0F6FC" x1="20.345" x2="27.747" y1="32.127" y2="39.531"/></g><g><line fill="#F0F6FC" x1="24.048" x2="24.048" y1="31.629" y2="35.826"/></g><g><line fill="#F0F6FC" x1="22.867" x2="20.183" y1="34.758" y2="34.758"/></g></g></g><g><path d="M37.979,42.783c0,0.27-0.214,0.48-0.479,0.48c-0.264,0-0.48-0.211-0.48-0.48      c0-0.266,0.217-0.479,0.48-0.479C37.765,42.305,37.979,42.518,37.979,42.783z" fill="#F0F6FC"/></g><g><path d="M37.979,47.105c0,0.268-0.214,0.48-0.479,0.48c-0.264,0-0.48-0.213-0.48-0.48      c0-0.26,0.217-0.479,0.48-0.479C37.765,46.627,37.979,46.846,37.979,47.105z" fill="#F0F6FC"/></g><g><circle cx="37.499" cy="51.43" fill="#F0F6FC" r="0.48"/></g><g><rect fill="#379ACC" height="6.445" width="8.99" x="33.003" y="17.785"/></g><g><rect fill="#138CBC" height="6.445" width="4.232" x="35.382" y="17.785"/></g><g><path d="M41.662,24.23h-8.324c-2.956,1.248-5.002,3.758-5.002,6.686c0,4.17,4.104,7.545,9.163,7.545      c5.064,0,9.165-3.375,9.165-7.545C46.664,27.988,44.618,25.479,41.662,24.23z" fill="#F0F6FC"/></g><g><path d="M31.538,30.916c0,3.719,3.268,6.799,7.562,7.422c4.299-0.623,7.563-3.703,7.563-7.422      c0-2.928-2.046-5.438-5.002-6.686H36.54C33.583,25.479,31.538,27.988,31.538,30.916z" fill="#D9F1FF"/></g><g><line fill="#F0F6FC" x1="28.043" x2="46.957" y1="24.23" y2="24.23"/></g><g><g><path d="M34.298,29.787c0,0.09-0.075,0.164-0.168,0.164c-0.088,0-0.16-0.074-0.16-0.164       c0-0.094,0.072-0.164,0.16-0.164C34.223,29.623,34.298,29.693,34.298,29.787z" fill="#F0F6FC"/></g><g><path d="M41.034,29.787c0,0.09-0.076,0.164-0.168,0.164s-0.164-0.074-0.164-0.164       c0-0.094,0.072-0.164,0.164-0.164S41.034,29.693,41.034,29.787z" fill="#F0F6FC"/></g></g><g><line fill="#F0F6FC" x1="33.003" x2="36.687" y1="32.127" y2="32.127"/></g><g><path d="M39.1,34.428c-0.881,0.883-2.315,0.883-3.202,0" fill="#F0F6FC"/></g></g><g><g><path d="M37.499,57.121c-7.296,0-13.231-4.949-13.231-11.033c0-4.232,2.837-8.023,7.405-9.894      c0.224-0.091,0.479-0.069,0.684,0.06c3.033,1.908,7.262,1.904,10.284,0c0.205-0.129,0.459-0.15,0.684-0.06      c4.569,1.87,7.408,5.661,7.408,9.894C50.732,52.172,44.796,57.121,37.499,57.121z M31.898,37.729      c-3.792,1.679-6.13,4.853-6.13,8.359c0,5.257,5.263,9.533,11.731,9.533c6.47,0,11.733-4.276,11.733-9.533      c0-3.507-2.34-6.682-6.133-8.359C39.751,39.671,35.254,39.671,31.898,37.729z" fill="#093260"/></g><g><g><g><path d="M47.246,40.281c-0.192,0-0.384-0.073-0.53-0.22c-0.293-0.293-0.293-0.768,0-1.061l7.409-7.404        c0.293-0.293,0.769-0.293,1.061,0c0.293,0.293,0.293,0.768,0,1.061l-7.409,7.404C47.63,40.208,47.438,40.281,47.246,40.281z" fill="#093260"/></g><g><path d="M50.949,36.576c-0.414,0-0.75-0.336-0.75-0.75v-4.197c0-0.414,0.336-0.75,0.75-0.75        s0.75,0.336,0.75,0.75v4.197C51.699,36.24,51.363,36.576,50.949,36.576z" fill="#093260"/></g><g><path d="M54.817,35.508H52.13c-0.414,0-0.75-0.336-0.75-0.75s0.336-0.75,0.75-0.75h2.688        c0.414,0,0.75,0.336,0.75,0.75S55.231,35.508,54.817,35.508z" fill="#093260"/></g></g><g><g><path d="M27.747,40.281c-0.192,0-0.384-0.073-0.53-0.22l-7.402-7.404c-0.293-0.293-0.293-0.768,0-1.061        s0.768-0.293,1.061,0l7.402,7.404c0.293,0.293,0.293,0.768,0,1.061C28.131,40.208,27.939,40.281,27.747,40.281z" fill="#093260"/></g><g><path d="M24.048,36.576c-0.414,0-0.75-0.336-0.75-0.75v-4.197c0-0.414,0.336-0.75,0.75-0.75        s0.75,0.336,0.75,0.75v4.197C24.798,36.24,24.462,36.576,24.048,36.576z" fill="#093260"/></g><g><path d="M22.867,35.508h-2.685c-0.414,0-0.75-0.336-0.75-0.75s0.336-0.75,0.75-0.75h2.685        c0.414,0,0.75,0.336,0.75,0.75S23.281,35.508,22.867,35.508z" fill="#093260"/></g></g></g><circle cx="37.499" cy="42.784" fill="#093260" r="1.229"/><circle cx="37.499" cy="47.106" fill="#093260" r="1.229"/><circle cx="37.499" cy="51.432" fill="#093260" r="1.229"/><g><path d="M41.993,24.98h-8.99c-0.414,0-0.75-0.336-0.75-0.75v-6.445c0-0.414,0.336-0.75,0.75-0.75h8.99      c0.414,0,0.75,0.336,0.75,0.75v6.445C42.743,24.645,42.407,24.98,41.993,24.98z M33.753,23.48h7.49v-4.945h-7.49V23.48z" fill="#093260"/></g><g><path d="M37.499,39.211c-5.466,0-9.913-3.721-9.913-8.295c0-3.128,2.092-5.954,5.46-7.377      c0.092-0.038,0.191-0.059,0.292-0.059h8.324c0.1,0,0.199,0.021,0.292,0.059c3.368,1.423,5.46,4.249,5.46,7.377      C47.414,35.49,42.966,39.211,37.499,39.211z M33.493,24.98c-2.723,1.199-4.407,3.462-4.407,5.936      c0,3.747,3.774,6.795,8.413,6.795c4.64,0,8.415-3.048,8.415-6.795c0-2.474-1.684-4.736-4.407-5.936H33.493z" fill="#093260"/></g><g><path d="M46.957,24.98H28.043c-0.414,0-0.75-0.336-0.75-0.75s0.336-0.75,0.75-0.75h18.914      c0.414,0,0.75,0.336,0.75,0.75S47.371,24.98,46.957,24.98z" fill="#093260"/></g><g><path d="M34.125,28.781c-1.29,0-1.29,2,0,2S35.415,28.781,34.125,28.781z" fill="#093260"/><path d="M40.828,28.781c-1.29,0-1.29,2,0,2S42.118,28.781,40.828,28.781z" fill="#093260"/></g><g><path d="M36.687,32.877h-3.684c-0.414,0-0.75-0.336-0.75-0.75s0.336-0.75,0.75-0.75h3.684      c0.414,0,0.75,0.336,0.75,0.75S37.101,32.877,36.687,32.877z" fill="#093260"/></g><g><path d="M37.5,35.839c-0.771,0-1.543-0.293-2.132-0.88c-0.293-0.292-0.294-0.767-0.002-1.061      c0.293-0.295,0.767-0.293,1.061-0.002c0.592,0.588,1.553,0.591,2.142,0.002c0.292-0.295,0.767-0.294,1.061-0.002      c0.293,0.293,0.293,0.768,0.001,1.061C39.044,35.545,38.273,35.839,37.5,35.839z" fill="#093260"/></g></g></g></g></svg>